# xmcd CD database file
#
# Track frame offsets:
#	150
#	19088
#	31556
#
# Disc length: 598 seconds
#
# Revision: 1
# Processed by: cddbd v1.5.1PL0 Copyright (c) Steve Scherf et al.
# Submitted via: CDex 1.51
#
DISCID=13025403
DTITLE=Silencia - Demo
DYEAR=2004
DGENRE=New Age
TTITLE0=Cas
TTITLE1=Silencia
TTITLE2=Paranoja
EXTD=YEAR: 2004
EXTT0=
EXTT1=
EXTT2=
PLAYORDER=
